<svg width="69" height="69" viewBox="0 0 69 69" fill="none" xmlns="http://www.w3.org/2000/svg">
  <rect x="7.68857" y="7.68848" width="52.8444" height="52.8444" rx="5" fill="#E6E6E6"/>
  <rect x="18.8555" width="52.8444" height="52.8444" rx="5" transform="rotate(20.9045 18.8555 0)" fill="#E6E6E6" fill-opacity="0.5"/>
  <path d="M23.6316 39.6087C23.6316 38.4474 24.573 37.506 25.7343 37.506C26.8956 37.506 27.8371 38.4474 27.8371 39.6087C27.8371 39.611 27.8358 39.6151 27.8371 39.621C27.8383 39.6272 27.8419 39.6394 27.8494 39.658C27.8664 39.6995 27.9096 39.7795 28.0013 39.888C28.1932 40.1146 28.5536 40.4085 29.1389 40.7012C30.3117 41.2875 32.0785 41.7115 34.1453 41.7115C36.212 41.7115 37.9788 41.2875 39.1516 40.7012C39.737 40.4085 40.0973 40.1146 40.2892 39.888C40.381 39.7795 40.4242 39.6995 40.4412 39.658C40.4487 39.6394 40.4522 39.6272 40.4535 39.621C40.4547 39.6151 40.4535 39.611 40.4535 39.6087C40.4535 38.4474 41.395 37.506 42.5563 37.506C43.7176 37.506 44.659 38.4474 44.659 39.6087C44.659 41.9956 42.7782 43.5903 41.0326 44.4631C39.1613 45.3987 36.7234 45.917 34.1453 45.917C31.5672 45.917 29.1293 45.3987 27.258 44.4631C25.5124 43.5903 23.6316 41.9956 23.6316 39.6087Z" fill="#4B4B4B"/>
  <path d="M25.7342 29.0951V24.8896C25.7342 23.7283 24.7928 22.7869 23.6315 22.7869C22.4702 22.7869 21.5287 23.7283 21.5287 24.8896V29.0951C21.5287 30.2564 22.4702 31.1978 23.6315 31.1978C24.7928 31.1978 25.7342 30.2564 25.7342 29.0951Z" fill="#4B4B4B"/>
  <path d="M46.7617 29.0951V24.8896C46.7617 23.7283 45.8203 22.7869 44.659 22.7869C43.4977 22.7869 42.5562 23.7283 42.5562 24.8896V29.0951C42.5562 30.2564 43.4977 31.1978 44.659 31.1978C45.8203 31.1978 46.7617 30.2564 46.7617 29.0951Z" fill="#4B4B4B"/>
</svg>
